# xmcd CD database file generated by libcdaudio 0.99.4
# 
# Track frame offsets:
#       150
#       17837
#       34275
#       49100
#       67852
#       77519
#       102628
#       128775
#       150996
#       165863
#       185543
#       207350
#       223978
#       240240
# 
# Disc length: 3478 seconds
# 
# Revision: 2
# Processed by: cddbd v1.4PL0 Copyright (c) Steve Scherf et al.
# Submitted via: libcdaudio 0.99.4
# 
DISCID=b30d940e
DTITLE=Serentiy - Serenity
DYEAR=1900
DGENRE=
TTITLE0=None of the Above
TTITLE1=That Feelin'
TTITLE2=So You'll Smile
TTITLE3=Try To Be Like you Are
TTITLE4=Need
TTITLE5=Rules Of The Game
TTITLE6=Anthony
TTITLE7=Alysia
TTITLE8=My Love's Gone By
TTITLE9=Thundered
TTITLE10=Clear Blues - Lamplite
TTITLE11=Asleep
TTITLE12=23
TTITLE13=Why
EXTD=
EXTT0=
EXTT1=
EXTT2=
EXTT3=
EXTT4=
EXTT5=
EXTT6=
EXTT7=
EXTT8=
EXTT9=
EXTT10=
EXTT11=
EXTT12=
EXTT13=
PLAYORDER=
